<?xml version="1.0" encoding="UTF-8" standalone="no"?>
<svg
   width="1868.7629"
   height="2108.3203"
   viewBox="0 0 1868.763 2108.3203"
   version="1.1"
   xml:space="preserve"
   style="clip-rule:evenodd;fill-rule:evenodd;stroke-linejoin:round;stroke-miterlimit:2"
   id="svg30"
   sodipodi:docname="OGC_logo.svg"
   inkscape:version="1.3 (0e150ed6c4, 2023-07-21)"
   xmlns:inkscape="http://www.inkscape.org/namespaces/inkscape"
   xmlns:sodipodi="http://sodipodi.sourceforge.net/DTD/sodipodi-0.dtd"
   xmlns="http://www.w3.org/2000/svg"
   xmlns:svg="http://www.w3.org/2000/svg"><defs
   id="defs30">&#10;        &#10;        &#10;    </defs><sodipodi:namedview
   id="namedview30"
   pagecolor="#ffffff"
   bordercolor="#666666"
   borderopacity="1.0"
   inkscape:showpageshadow="2"
   inkscape:pageopacity="0.0"
   inkscape:pagecheckerboard="0"
   inkscape:deskcolor="#d1d1d1"
   inkscape:zoom="0.20903955"
   inkscape:cx="3147.7297"
   inkscape:cy="662.55405"
   inkscape:window-width="1920"
   inkscape:window-height="1027"
   inkscape:window-x="-8"
   inkscape:window-y="4"
   inkscape:window-maximized="1"
   inkscape:current-layer="svg30" />&#10;    <g
   id="Cube"
   transform="matrix(20.0651,0,0,20.0651,-2285.4952,-2016.2215)">&#10;            <g
   transform="translate(156.217,161.569)"
   id="g28">&#10;                <path
   d="M 0,14.653 0.001,43.983 -42.312,19.554 -42.313,-29.33 0,-4.901 v 9.776 l -8.446,-4.874 -4.233,-2.445 -21.167,-12.221 v 29.33 l 25.4,14.666 v -9.777 l -12.7,-7.333 0.001,-4.888 h -0.001 V 2.445 Z"
   style="fill:#00b1ff;fill-rule:nonzero"
   id="path27" />&#10;            </g>&#10;            <g
   transform="translate(160.455,110.261)"
   id="g29">&#10;                <path
   d="M 0,29.33 -25.403,14.665 0,-0.001 25.399,14.665 21.167,17.109 Z M -0.001,-9.777 -42.336,14.665 -0.001,39.107 42.333,14.665 Z"
   style="fill:#00b1ff;fill-rule:nonzero"
   id="path28" />&#10;            </g>&#10;            <g
   transform="translate(181.66,181.239)"
   id="g30">&#10;                <path
   d="m 0,-24.688 8.468,-4.888 8.466,-4.889 10e-4,9.777 8.444,-4.875 v -19.444 l -42.312,24.429 v 9.666 h 0.001 l -0.001,2.918 0.001,36.19 -0.022,-0.013 v 0.136 L 25.379,-0.123 v -19.665 l -8.444,4.877 v 9.776 L -8.466,9.53 -8.465,-19.799 Z"
   style="fill:#00b1ff;fill-rule:nonzero"
   id="path29" />&#10;            </g>&#10;        </g>&#10;</svg>
